<?xml version='1.0' encoding='utf-8'?>
<svg xmlns="http://www.w3.org/2000/svg" version="1.1" width="1720px" height="1229px" viewBox="-320 450 1720 1229"> <g id="layer1"> <g style="fill:rgb(196,231,233); fill-opacity:1.0; stroke-linejoin: miter"> <path d="M-339.56207,436.8453C-339.82022,436.8453,-340.06784,436.94772,-340.2503,437.13025C-340.43283,437.31305,-340.53546,437.56046,-340.53546,437.81854L-340.5343,1694.1871C-340.5343,1694.7249,-340.09857,1695.1604,-339.56107,1695.1604L1419.5645,1695.1611C1419.823,1695.1611,1420.0702,1695.059,1420.2527,1694.8762C1420.4353,1694.694,1420.538,1694.4463,1420.538,1694.1885L1420.5366,437.81955C1420.5366,437.28186,1420.1011,436.8463,1419.5634,436.8463L-339.56207,436.8453 Z"/> </g> <g style="fill:rgb(0,0,0); fill-opacity:0.19215687; stroke-linejoin: miter"> <path d="M1117.1765,1507.2252L1112.1315,1513.2009Q1076.2627,1531.2598,902.2284,1542.0875Q726.98987,1552.9059,489.51758,1550.8613Q262.8813,1548.0029,127.00046,1534.1354Q83.46276,1529.6527,55.276855,1524.3668L31.587349,1518.9323Q12.065052,1513.3231,11.845505,1507.2252Q17.772003,1488.512,173.7174,1476.0858Q329.66318,1463.6593,564.5109,1463.1873Q799.35895,1463.6593,955.30457,1476.0858Q1111.25,1488.512,1117.1765,1507.2252"/> </g> <g style="fill:rgb(255,181,145); fill-opacity:1.0; stroke-linejoin: miter"> <path d="M521.59424,811.4372Q520.46594,811.3908,518.833,813.0739Q518.327,813.2757,512.3644,821.6221Q511.0182,823.3384,509.65717,824.8037Q508.31598,826.2579,506.653,827.8208Q497.8307,835.45123,497.50153,836.20496Q494.69452,839.37646,493.77606,843.1133Q492.6361,847.4639,492.945,854.7612L506.6441,869.42676Q528.9921,858.9417,533.70404,855.2114Q535.01495,854.23645,536.1269,853.1635Q541.65576,847.10876,544.72675,844.5992L562.98474,829.92706L567.0033,826.5246Q570.76764,823.15936,571.15906,821.4121Q571.9175,815.4907,565.1978,817.2179Q562.8642,817.728,558.28564,819.4207Q535.5953,828.44855,533.7409,828.8567Q526.58844,831.3095,516.20276,833.8323Q523.6106,824.79407,524.4894,820.3631Q525.23285,817.1984,524.42554,814.4936Q523.4567,811.604,521.7095,811.442 Z"/> </g> <g style="fill:rgb(0,0,0); fill-opacity:1.0; stroke-linejoin: miter"> <path d="M274.50003,1457.2902L272.09528,1493.2186Q283.9076,1496.5585,290.4026,1497.5416Q293.4556,1498.2649,304.8364,1498.2322Q306.7748,1498.3536,308.56528,1498.7911Q310.40897,1499.2533,312.239,1500.1498L322.10275,1505.5604Q325.0276,1507.0477,328.03357,1508.1298Q334.98822,1510.5983,343.19815,1511.2452Q357.97736,1512.3126,365.535,1505.9929Q373.78625,1498.1658,365.9851,1492.026Q363.7127,1490.2207,359.80258,1488.3676Q357.45676,1487.1095,345.42264,1482.7787Q342.98444,1481.7319,341.1923,1480.318Q337.07263,1477.5332,326.1191,1461.0646L274.54642,1457.2937 Z"/> </g> <g style="fill:rgb(0,0,0); fill-opacity:1.0; stroke-linejoin: miter"> <path d="M159.85312,1467.0017Q159.44864,1473.5156,157.36142,1478.2179Q156.31287,1480.675,154.79974,1483.2102L147.51541,1494.6119Q145.78273,1497.4164,144.62378,1499.7345Q141.98592,1504.937,142.18924,1508.7412Q143.21776,1520.375,162.12933,1521.8555Q178.4047,1522.4272,185.85143,1517.5911Q188.33032,1515.9254,189.20305,1513.075Q189.53706,1512.036,189.68854,1510.529Q189.83305,1509.7794,189.7376,1505.135Q189.7755,1504.2826,190.05678,1503.9094Q190.4624,1503.4489,191.12143,1503.548L195.08772,1504.4586Q196.35455,1504.6809,197.43492,1504.6305Q199.5537,1504.5201,200.90672,1503.386Q204.07076,1500.8059,203.60466,1492.5394Q203.26813,1484.5206,200.25684,1469.65L159.854,1467.0017 Z"/> </g> <g style="fill:rgb(0,0,0); fill-opacity:1.0; stroke-linejoin: miter"> <path d="M252.78503,695.18713Q229.96245,694.7171,221.99855,710.72754Q217.27614,719.60425,215.92134,733.7457Q214.28032,749.65454,216.82907,762.6623L287.54443,761.7415Q289.6703,759.506,291.40805,756.37177Q295.6546,748.4962,295.25162,733.35785Q294.65396,721.03815,289.27798,712.42664Q279.31027,696.93384,252.8938,695.1901 Z"/> </g> <g style="fill:rgb(255,255,255); fill-opacity:1.0; stroke-linejoin: miter"> <path d="M216.8013,801.1033L206.31401,813.5815L205.14859,1064.8694Q281.8707,1083.5516,308.27612,1075.0453Q338.2207,1067.6228,339.17352,1028.2635Q342.20435,989.6129,311.26523,875.05383L275.11227,809.62836L274.3289,807.4897L270.94632,806.91315L262.23926,835.3128L253.2666,837.4603L251.97836,846.31195L251.75247,846.3482L233.86803,838.23914L216.88116,801.2764 Z"/> </g> <g style="fill:rgb(0,0,0); fill-opacity:1.0; stroke-linejoin: miter"> <path d="M331.33932,1037.7538Q295.5902,1049.0599,268.9164,1050.7672Q236.4993,1053.2068,176.88144,1048.3715L176.0044,1049.6567Q173.14027,1055.4924,168.70851,1138.2563Q164.51747,1213.9451,153.26823,1468.4055L203.31934,1471.0146Q212.28944,1325.4299,222.17856,1274.7251Q231.32866,1220.246,258.99182,1164.3439Q277.64795,1264.3541,279.21915,1315.8855Q282.00937,1366.9556,271.69193,1467.2053L328.88843,1463.8667L341.06644,1136.5775L331.39597,1038.3315 Z"/> </g> <g style="fill:rgb(0,0,0); fill-opacity:1.0; stroke-linejoin: miter"> <path d="M155.21095,955.2305L151.8062,1000.5398L145.44403,989.8297L155.09079,955.65643 M208.87189,809.86084Q180.60448,827.14343,135.0063,845.17163Q127.8443,871.62604,122.87457,888.58514L105.720894,944.8221L100.10268,964.6528Q94.34059,985.98303,95.907585,994.9437Q96.53606,999.9099,99.75625,1006.04834Q111.27434,1025.4454,140.44301,1080.171L145.92128,1078.5125L143.24818,1115.0812L172.8017,1128.5507Q207.91473,1070.2095,214.98941,1006.13574Q222.48886,949.7482,208.87721,809.8978 Z"/> </g> <g style="fill:rgb(0,0,0); fill-opacity:1.0; stroke-linejoin: miter"> <path d="M274.52753,809.1515L336.2444,1103.0125Q348.71152,1108.3965,358.01944,1114.2444L364.76797,1100.2902L354.3859,931.0378L397.53558,956.9813Q401.5371,957.5327,404.92502,956.7012Q412.76785,958.5841,499.45636,898.3159L473.14804,861.51825Q441.7114,886.3364,403.94138,900.36053Q369.09692,877.1978,358.13544,865.1073Q346.52518,853.3136,339.25073,831.33813L283.4297,817.9407L274.56125,809.1852 Z"/> </g> <g style="fill:rgb(255,181,145); fill-opacity:1.0; stroke-linejoin: miter"> <path d="M249.25735,709.791Q240.52884,708.2892,233.01697,719.95917Q227.25233,728.72125,223.82541,750.75073Q223.02289,744.858,221.4185,742.75653Q219.88205,740.4883,215.31975,738.29614Q209.03477,745.4806,209.60152,752.8331Q210.01462,760.63544,212.53194,765.1772Q214.06596,768.22626,218.53398,768.03815L216.97319,804.43677L231.3743,839.8761L252.12906,848.8796L261.75034,835.5909L272.05685,813.9184L270.9571,804.5648Q279.30838,793.0754,281.35757,786.4527Q281.83722,785.86633,285.29623,770.7237Q290.9787,757.28845,291.58258,753.60583Q293.89328,744.0388,293.76715,737.0539Q293.59338,729.5295,290.39917,727.78705Q289.1881,727.00824,286.96463,726.6642Q277.86182,726.0342,276.87424,725.6869Q274.45108,725.22473,272.4194,724.3379Q270.21518,723.40344,267.1935,721.32L255.10474,712.34143Q251.9483,710.33105,249.27472,709.7943 Z"/> </g> <g style="fill:rgb(250,84,34); fill-opacity:0.20784314; stroke-linejoin: miter"> <path d="M218.2399,786.8713L248.5812,847.5681L269.47668,805.5954Q263.14734,811.5708,256.4523,813.1994Q247.9701,815.37964,240.82,812.7284Q235.46606,810.78796,230.24702,804.6812Q225.72667,799.49774,218.31113,786.9899 Z"/> </g> <g style="fill:rgb(255,255,255); fill-opacity:1.0; stroke-linejoin: miter"> <path d="M172.66124,1058.5289L147.23514,1077.6995Q150.504,1083.6571,152.82394,1085.9978Q157.40909,1090.8842,163.30756,1087.2109Q168.89891,1084.2386,182.47684,1068.6693L172.66821,1058.5365 Z"/> </g> <g style="fill:rgb(255,181,145); fill-opacity:1.0; stroke-linejoin: miter"> <path d="M196.78769,1068.1509Q184.4577,1067.8378,181.78499,1068.3922L161.51671,1088.7308L179.29315,1117.5543Q188.16338,1101.6674,195.93523,1083.4452L199.5504,1078.678Q212.67732,1080.2075,216.14394,1073.8092Q217.0817,1071.1936,212.64778,1069.8624Q207.89673,1068.497,196.89087,1068.1537 Z"/> </g> <g style="fill:rgb(0,0,0); fill-opacity:0.4117647; stroke-linejoin: miter"> <path d="M221.33218,833.2986L213.61179,839.03265L234.54263,843.71594L221.33345,833.2994L221.33218,833.2986 Z M274.97827,828.21405L259.3959,844.08325L280.48547,833.3298L274.99008,828.2249L274.97827,828.21405 Z M249.98749,850.2034L268.88205,1050.6533Q267.63943,1020.49634,261.09436,951.0297Q255.93817,895.59924,249.99902,850.28534L249.98749,850.2034 Z"/> </g> <g style="fill:rgb(0,0,0); fill-opacity:1.0; stroke-linejoin: miter"> <path d="M721.8129,706.399Q722.11487,706.1572,722.24066,706.05896Q722.3538,705.9731,722.46686,705.90814 Z"/> </g> <g style="fill:rgb(0,0,0); fill-opacity:1.0; stroke-linejoin: miter"> <path d="M721.8129,706.399Q722.11487,706.1572,722.24066,706.05896Q722.3538,705.9731,722.46686,705.90814 Z"/> </g> <g style="fill:rgb(34,43,50); fill-opacity:1.0; stroke-linejoin: miter"> <path d="M631.9849,782.89667C631.9762,782.89667,631.96735,782.89685,631.95844,782.8974L631.95844,782.8979C631.953,782.8979,631.9488,782.8979,631.94867,782.8979L631.9484,782.8981C626.9473,782.89685,623.1046,786.7463,623.0845,791.75116L622.3629,969.115C622.34247,974.1333,626.17505,977.9956,631.19196,978.0283L631.19293,978.0283L934.17017,979.2479L934.17017,979.2486C934.18414,979.2479,934.1882,979.2479,934.1891,979.2479C934.1897,979.2479,934.19336,979.2479,934.20844,979.2479C939.20795,979.2488,943.0517,975.4235,943.07245,970.4183L943.7938,793.0542C943.8139,788.0465,939.99817,784.1636,934.9916,784.1401L934.99097,784.14026C934.9879,784.1401,934.96063,784.1401,934.9572,784.1401L934.96265,784.14026L631.9866,782.89667 Z"/> </g> <g style="fill:rgb(0,0,0); fill-opacity:1.0; stroke-linejoin: miter"> <path d="M632.0307,772.05963C621.20294,772.01526,612.28973,780.8781,612.24615,791.70654L611.5245,969.0705C611.4804,979.8978,620.32117,988.8108,631.149,988.8551L934.1259,990.0974C944.9537,990.1306,953.86676,981.28973,953.91064,970.4622L954.63214,793.09924C954.67584,782.2711,945.8357,773.3361,935.0078,773.2918L632.0307,772.0714 Z M631.9849,783.3437L934.96204,784.5867C939.7333,784.5945,943.3665,788.2797,943.34717,793.0528L942.62524,970.4166C942.60626,975.1876,938.94305,978.8208,934.17194,978.80194L631.1948,977.58105C626.4236,977.551,622.7902,973.88837,622.8096,969.11664L623.53107,791.753C623.5505,786.9802,627.21356,783.3252,631.9849,783.3445 Z"/> </g> <g style="fill:rgb(0,0,0); fill-opacity:1.0; stroke-linejoin: miter"> <path d="M593.3821,991.959C593.3337,1003.871,601.52,1013.49817,611.73413,1013.53906L953.33905,1014.93896C963.5529,1014.96936,971.81775,1005.4103,971.86615,993.4972L593.38184,991.97034 Z"/> </g> <g style="fill:rgb(255,0,0); fill-opacity:1.0; stroke-linejoin: miter"> <path d="M741.8947,938.2886C737.3258,939.24817,731.5232,941.85254,727.8223,944.59375C721.2885,949.3913,715.8058,957.34143,713.7954,964.83453C713.2928,966.7079,710.82544,980.23206,708.2668,994.94434C705.7538,1009.6565,703.14954,1024.4602,702.55566,1027.8412C700.81934,1037.4819,700.77356,1038.3042,701.59595,1041.594C704.10895,1051.3717,714.5719,1056.3976,723.8014,1052.2399C725.8574,1051.2803,728.6445,1048.7672,740.02136,1037.3905L753.7741,1023.7291L783.6555,1023.72925L813.5368,1023.72925L827.28955,1037.3448C841.8647,1051.8743,842.7327,1052.5596,847.9872,1053.5193C853.28723,1054.5243,860.0493,1051.7373,863.0649,1047.3967C866.8573,1041.8682,866.94867,1040.2235,864.0704,1023.72925C862.79095,1016.3274,860.3237,1002.02637,858.5874,991.97424C854.2013,966.70776,854.0185,965.88544,852.785,962.276C848.53564,950.2594,837.707,940.8471,825.2335,938.2884C821.1216,937.4204,818.837,937.37463,783.42725,937.4206C748.6113,937.42053,745.68695,937.51184,741.8947,938.2886 Z M754.6424,963.1898L754.6424,970.0433L761.6329,970.18024L768.5779,970.3175L768.5779,974.84064L768.5779,979.4097L761.7699,979.4122C756.744,979.4098,754.91644,979.5468,754.7794,979.9581C754.688,980.2778,754.6424,983.1107,754.688,986.2633C754.7335,989.4158,754.688,992.33997,754.55084,992.7512C754.3681,993.4822,753.7741,993.5736,749.8449,993.5737L745.32153,993.57605L745.1844,986.583L745.0475,979.638L738.10236,979.501L731.11194,979.36414L731.11194,974.8407L731.11194,970.27185L738.19385,970.27423L745.2759,970.2717L745.2759,963.1898L745.2759,956.0621L749.98193,956.1991L754.6424,956.3362L754.6424,963.1898 Z M820.02496,956.83875C822.1268,957.8439,823.13184,959.80865,822.8119,962.3672C822.53796,964.6976,821.2128,966.3423,819.01965,967.07324C815.73,968.16986,811.9835,965.4742,811.9835,962.00183C811.9835,957.34143,815.867,954.87396,820.02496,956.83875 Z M807.68854,970.5002C808.60236,971.1856,809.42487,972.3736,809.74457,973.42426C810.20154,974.9321,810.15576,975.4804,809.42474,976.94244C808.3283,979.1814,806.54645,980.4149,804.58167,980.4149C800.104,980.4149,797.3626,976.02875,799.41876,972.0993C800.8808,969.2666,805.0385,968.4899,807.68854,970.5002 Z M833.50354,970.1345C836.15356,971.73376,836.93036,975.43463,835.1484,978.0847C832.1784,982.51654,825.2335,980.4148,825.2335,975.0233C825.2335,973.88104,825.55347,972.4648,825.96466,971.82513C827.5637,969.4493,830.99054,968.6725,833.50354,970.1345 Z M821.16724,983.8873C823.86273,986.30896,823.36017,991.2434,820.20776,992.8883C817.6033,994.213,814.26794,993.43665,812.7144,991.1063C812.3032,990.4667,811.9835,989.0503,811.9835,987.8168C811.9835,985.94336,812.2118,985.48645,813.62823,984.1614C814.99896,982.8365,815.59296,982.6079,817.51184,982.6079C819.2937,982.60785,820.02484,982.8365,821.16724,983.8873 Z"/> </g> <g style="fill:rgb(0,0,0); fill-opacity:0.20392157; stroke-linejoin: miter"> <path d="M713.352,966.8776C712.4132,971.5509,710.37085,982.84576,708.2668,994.94434C705.7538,1009.6565,703.14954,1024.4602,702.55566,1027.8412C700.81934,1037.4819,700.77356,1038.3042,701.59595,1041.594C703.50507,1049.0221,710.0025,1053.7079,717.0616,1053.7079C719.2946,1053.7079,721.5836,1053.2389,723.8014,1052.2399C725.8574,1051.2803,728.6445,1048.7672,740.02136,1037.3905L753.7741,1023.7291L813.5368,1023.73157L827.28955,1037.3448C841.8647,1051.8743,842.7327,1052.5596,847.9872,1053.5193C848.7194,1053.6581,849.4795,1053.7244,850.2537,1053.7244C855.08417,1053.7245,860.46594,1051.1378,863.0649,1047.3967C866.8573,1041.8682,866.94867,1040.2235,864.0704,1023.72925C862.79095,1016.3274,860.3237,1002.02637,858.5874,991.97424C856.50397,979.97266,855.36884,973.4864,854.6192,969.5968L854.6131,969.5993Q844.5288,1005.5702,804.9448,1015.96216Q792.5219,1018.9082,780.4566,1018.9081Q766.47064,1018.9081,752.9652,1014.94946Q730.58923,1008.21423,720.93677,989.9292Q716.0474,981.472,713.3567,966.8776 Z"/> </g> <g style="fill:rgb(0,0,0); fill-opacity:0.07058824; stroke-linejoin: miter"> <path d="M741.4256,1019.79126L716.32904,1053.6914L716.3336,1053.6937C716.5755,1053.7023,716.81824,1053.7079,717.0616,1053.7079C719.2946,1053.7079,721.5836,1053.2389,723.8014,1052.2399C725.8574,1051.2803,728.6445,1048.7672,740.02136,1037.3905L753.7741,1023.7291L813.5368,1023.73157L827.28955,1037.3448C841.8647,1051.8743,842.7327,1052.5596,847.9872,1053.5193C848.7194,1053.6581,849.4795,1053.7244,850.2537,1053.7244C851.91455,1053.7244,853.6406,1053.4188,855.2962,1052.8654L855.3023,1052.8678L831.90356,1019.8319L831.8881,1019.8102L741.4256,1019.79126 Z"/> </g> <g style="fill:rgb(255,255,255); fill-opacity:1.0; stroke-linejoin: miter"> <path d="M745.2759,956.0621L749.98193,956.1991L754.6424,956.3362L754.6424,963.1898L754.6424,970.0433L761.6329,970.18024L768.5779,970.3175L768.5779,974.84064L768.5779,979.4097L761.7699,979.4122C756.744,979.4098,754.91644,979.5468,754.7794,979.9581C754.688,980.2778,754.6424,983.1107,754.688,986.2633C754.7335,989.4158,754.688,992.33997,754.55084,992.7512C754.3681,993.4822,753.7741,993.5736,749.8449,993.5737L745.32153,993.57605L745.1844,986.583L745.0475,979.638L738.10236,979.501L731.11194,979.36414L731.11194,974.8407L731.11194,970.27185L745.2759,970.27423L745.2759,963.1898L745.2759,956.0621 Z"/> </g> <g style="fill:rgb(255,255,255); fill-opacity:1.0; stroke-linejoin: miter"> <path d="M817.1781,956.1588C818.0804,956.15875,819.045,956.3757,820.02496,956.83875C822.1268,957.8439,823.13184,959.80865,822.8119,962.3672C822.53796,964.6976,821.2128,966.3423,819.01965,967.07324C818.5131,967.2422,817.99554,967.32117,817.4827,967.3212C814.66486,967.3212,811.9835,964.9394,811.9835,962.00183C811.9835,958.4397,814.25226,956.1588,817.1781,956.1588 Z"/> </g> <g style="fill:rgb(255,255,255); fill-opacity:1.0; stroke-linejoin: miter"> <path d="M830.70264,969.3945C831.67,969.3945,832.64056,969.63245,833.50354,970.1345C836.15356,971.73376,836.93036,975.43463,835.1484,978.0847C834.03784,979.7414,832.3721,980.48535,830.7212,980.48535C827.9564,980.48535,825.2335,978.39923,825.2335,975.0233C825.2335,973.88104,825.55347,972.4648,825.96466,971.82513C827.0147,970.265,828.85284,969.3945,830.70264,969.3945 Z"/> </g> <g style="fill:rgb(255,255,255); fill-opacity:1.0; stroke-linejoin: miter"> <path d="M804.24945,969.3758C805.4597,969.3758,806.6828,969.73724,807.68854,970.5002C808.60236,971.1856,809.42487,972.3736,809.74457,973.42426C810.20154,974.9321,810.15576,975.4804,809.42474,976.94244C808.3283,979.1814,806.54645,980.4149,804.58167,980.4149C800.104,980.4149,797.3626,976.02875,799.41876,972.0993C800.32587,970.3418,802.27075,969.3758,804.24945,969.3758 Z"/> </g> <g style="fill:rgb(255,255,255); fill-opacity:1.0; stroke-linejoin: miter"> <path d="M817.51184,982.6079C819.2937,982.60785,820.02484,982.8365,821.16724,983.8873C823.86273,986.30896,823.36017,991.2434,820.20776,992.8883C819.34985,993.3247,818.4127,993.53296,817.48615,993.5331C815.5994,993.5331,813.7562,992.66907,812.7144,991.1063C812.3032,990.4667,811.9835,989.0503,811.9835,987.8168C811.9835,985.94336,812.2118,985.48645,813.62823,984.1614C814.99896,982.8365,815.59296,982.6079,817.51184,982.6079 Z"/> </g> <g style="fill:rgb(0,0,0); fill-opacity:0.05490196; stroke-linejoin: miter"> <path d="M785.78656,937.4176C785.0169,937.4185,784.23047,937.41956,783.42725,937.4206C748.6113,937.42053,745.68695,937.51184,741.8947,938.2886C737.3258,939.24817,731.5232,941.85254,727.8223,944.59375C721.2885,949.3913,715.8058,957.34143,713.7954,964.83453C713.2928,966.7079,710.82544,980.23206,708.2668,994.94434C705.7538,1009.6565,703.14954,1024.4602,702.55566,1027.8412C700.81934,1037.4819,700.77356,1038.3042,701.59595,1041.594C703.43915,1048.7659,709.5599,1053.3813,716.3336,1053.6914L716.33466,1053.6937C716.57623,1053.7023,716.8186,1053.7079,717.0616,1053.7079C719.2946,1053.7079,721.5836,1053.2389,723.8014,1052.2399C725.8574,1051.2803,728.6445,1048.7672,740.02136,1037.3905L753.7741,1023.7291L785.7918,1023.72925L785.79205,937.4176 Z"/> </g> <g style="fill:rgb(255,255,255); fill-opacity:0.99607843; stroke-linejoin: miter"> <path d="M651.5004,807.72156L651.50037,807.7216L651.50024,807.722L651.50037,807.7216L651.5004,807.72156L651.50037,807.7216L651.50024,807.722Q651.50037,807.7216,651.5004,807.72156"/> </g> <g style="fill:rgb(255,255,255); fill-opacity:0.99607843; stroke-linejoin: miter"> <path d="M651.5004,807.72156L651.50037,807.7216L651.50024,807.722L651.50037,807.7216L651.5004,807.72156L651.50037,807.7216L651.50024,807.722Q651.50037,807.7216,651.5004,807.72156"/> </g> <g style="fill:rgb(255,255,255); fill-opacity:0.99607843; stroke-linejoin: miter"> <path d="M675.244,993.6212L675.244,993.62134L675.244,993.6218L675.244,993.62134L675.244,993.6212L675.244,993.62134L675.244,993.6218Q675.244,993.62134,675.244,993.6212"/> </g> <g style="fill:rgb(0,0,0); fill-opacity:1.0; stroke-linejoin: miter"> <path d="M704.0059,980.2734L704.08105,980.57434L704.1563,980.87524L704.0059,980.2734"/> </g> <g> <g style="fill:rgb(255,255,255); fill-opacity:1.0; stroke-linejoin: miter"> <path d="M735.1766,841.23883L742.4279,855.02405L741.4227,855.02405Q735.6073,855.02405,731.87384,856.1727Q728.1404,857.3215,726.3455,858.25494L735.1766,841.23883 Z M728.9303,829.32056L731.37134,833.98737L713.56586,867.3733L721.3198,867.3733L721.5353,866.9425Q721.96606,866.3681,723.90454,865.43475Q725.77124,864.5732,728.57135,863.7116Q731.29956,862.9218,734.67395,862.3474Q738.04846,861.773,741.4947,861.773L745.946,861.77295L748.8896,867.37317L757.00275,867.3733L736.89966,829.32056 Z M763.82336,830.1821L767.485,836.14136L767.485,867.3733L775.598,867.3732L775.59796,845.6186L788.7369,863.13727L801.8755,845.61865L801.87555,867.3733L809.9886,867.3733L809.98846,836.14136L813.65015,830.1821L804.6037,830.1821L788.73676,851.2189L772.8697,830.1821 Z M826.2144,830.18207L826.2145,867.3732L856.8717,867.3732L856.8716,859.9062L833.5378,859.90625L833.53784,854.0189Q834.7583,853.3727,835.76355,852.94196Q836.7687,852.5111,837.98914,852.2957Q839.2097,852.0803,840.93286,851.9367Q842.58417,851.86487,845.1688,851.86487L850.6253,851.86487L850.6253,844.4697L845.1688,844.4697Q841.938,844.4697,838.9225,844.82874Q835.9789,845.1878,833.53784,846.6237L833.5379,837.5773L855.5075,837.5772L855.5075,830.18207 Z M690.0883,828.96155Q685.9242,828.96155,681.9754,830.2539Q678.02655,831.54626,674.9393,834.0592Q671.85205,836.5721,669.9853,840.2337Q668.1186,843.89526,668.1186,848.634Q668.1186,853.37256,669.9852,857.106Q671.78033,860.7679,674.86755,863.3526Q677.883,865.8655,681.83185,867.2297Q685.78064,868.5219,690.0166,868.5219Q694.3244,868.5219,698.2732,867.1578Q702.222,865.8654,705.3092,863.20886L705.30914,846.19293L691.02167,846.19293L694.18066,853.1573L697.98596,853.15717L697.9859,859.1164Q694.3244,861.055,690.1602,861.055Q687.5037,861.055,684.91895,860.2652Q682.4061,859.54724,680.39575,858.0395Q678.38544,856.5318,677.165,854.23425Q675.94446,851.93677,675.94446,848.77765Q675.94446,845.6186,677.165,843.2493Q678.3137,840.9517,680.32404,839.444Q682.33435,837.9362,684.8472,837.1465Q687.3601,836.4285,690.0883,836.4285Q692.74475,836.4285,695.40125,837.21826Q697.98596,837.9362,700.06793,839.37213L705.022,833.6283Q701.93475,831.3309,698.05774,830.1103Q694.1807,828.96155,690.0883,828.96155 Z M883.4364,828.9617Q880.3491,828.9617,877.54913,829.75134Q874.749,830.5412,872.66705,832.0489Q870.5849,833.48486,869.2926,835.567Q868.072,837.6491,868.072,840.16205Q868.07196,843.17755,869.2207,845.3315Q870.3694,847.4136,872.45154,848.77765Q874.4618,850.0701,877.2619,850.6445Q880.0619,851.2188,883.43634,851.2188Q889.25195,851.2188,892.1237,852.0085Q894.92377,852.79834,894.92377,855.3112Q894.92377,858.3267,891.7647,859.8345Q888.6058,861.3423,883.43646,861.3423Q880.9236,861.3423,879.1287,860.6962Q877.3337,860.1217,875.9695,859.18835Q874.6772,858.255,873.6721,857.17804Q872.7387,856.1011,871.87714,855.23944L866.5642,860.62427Q869.65155,864.2861,874.10297,866.4399Q878.4825,868.52203,883.43646,868.52203Q887.3853,868.52203,890.8315,867.66046Q894.2777,866.8708,896.86237,865.21936Q899.3752,863.6399,900.81116,861.12695Q902.24695,858.68567,902.247,855.31116Q902.247,853.08545,901.6008,851.00336Q900.95465,848.9212,899.0162,847.3417Q897.07764,845.7622,893.4161,844.8288Q889.8263,843.8954,883.93896,843.8954Q881.2107,843.89545,879.5594,843.6083Q877.97986,843.32104,877.1183,842.81854Q876.3286,842.38776,876.0414,841.6698Q875.826,841.02356,875.826,840.16205Q875.826,839.37225,876.54395,838.58246Q877.19006,837.8645,878.26715,837.2901Q879.34393,836.78754,880.7081,836.4286Q882.0005,836.14136,883.3646,836.14136Q886.59546,836.14136,889.4673,836.8593Q892.2673,837.5773,894.4212,839.37225L899.3752,833.6284Q895.28284,830.8283,891.4058,829.89496Q887.52875,828.9617,883.4364,828.9617 Z"/> </g> </g> <g style="fill:rgb(255,255,255); fill-opacity:1.0; stroke-linejoin: miter"> <path d="M548.5508,1071.6548L795.67346,1071.655L1042.7963,1071.656Q1042.796,1224.7451,1042.796,1377.8347Q795.67346,1377.8347,548.55066,1377.835Q548.5508,1224.7449,548.5508,1071.6548 Z"/> </g> <g style="fill:rgb(255,255,255); fill-opacity:1.0; stroke-linejoin: miter"> <path d="M863.6022,977.3147L863.6022,977.3159L863.6022,977.3152L863.6022,977.3147L863.6022,977.3159L863.6022,977.3147L863.6022,977.3152Q863.6022,977.3147,863.6022,977.3147 Z"/> </g> <g style="fill:rgb(230,230,230); fill-opacity:1.0; stroke-linejoin: miter"> <path d="M586.76245,1255.8877L685.7978,1255.8884L685.7978,1270.0527L586.76245,1270.0532L586.76245,1255.8877 Z M586.76245,1255.8877L685.7978,1255.8884L685.7978,1270.0527L586.76245,1270.0532L586.76245,1255.8877 Z M586.76245,1255.8877L685.7978,1255.8884L685.7978,1270.0527L586.76245,1270.0532L586.76245,1255.8877 Z M586.76245,1255.8877L685.7978,1255.8884L685.7978,1270.0527L586.76245,1270.0532L586.76245,1255.8877 Z"/> </g> <g style="fill:rgb(230,230,230); fill-opacity:1.0; stroke-linejoin: miter"> <path d="M586.7624,1284.0974L662.26953,1284.0981L662.26953,1298.263L586.7624,1298.2634L586.7624,1284.0974 Z M586.7624,1284.0974L662.26953,1284.0981L662.26953,1298.263L586.7624,1298.2634L586.7624,1284.0974 Z M586.7624,1284.0974L662.26953,1284.0981L662.26953,1298.263L586.7624,1298.2634L586.7624,1284.0974 Z M586.7624,1284.0974L662.26953,1284.0981L662.26953,1298.263L586.7624,1298.2634L586.7624,1284.0974 Z"/> </g> <g style="fill:rgb(230,230,230); fill-opacity:1.0; stroke-linejoin: miter"> <path d="M586.7624,1307.7463L685.7978,1307.7468L685.7978,1321.9114L586.7624,1321.9121L586.7624,1307.7463 Z M586.7624,1307.7463L685.7978,1307.7468L685.7978,1321.9114L586.7624,1321.9121L586.7624,1307.7463 Z M586.7624,1307.7463L685.7978,1307.7468L685.7978,1321.9114L586.7624,1321.9121L586.7624,1307.7463 Z M586.7624,1307.7463L685.7978,1307.7468L685.7978,1321.9114L586.7624,1321.9121L586.7624,1307.7463 Z"/> </g> <g style="fill:rgb(230,230,230); fill-opacity:1.0; stroke-linejoin: miter"> <path d="M586.7624,1336.0764L685.7978,1336.0767L685.7978,1345.5598L586.7624,1345.5603L586.7624,1336.0764 Z M586.7624,1336.0764L685.7978,1336.0767L685.7978,1345.5598L586.7624,1345.5603L586.7624,1336.0764 Z M586.7624,1336.0764L685.7978,1336.0767L685.7978,1345.5598L586.7624,1345.5603L586.7624,1336.0764 Z M586.7624,1336.0764L685.7978,1336.0767L685.7978,1345.5598L586.7624,1345.5603L586.7624,1336.0764 Z"/> </g> <g style="fill:rgb(230,230,230); fill-opacity:1.0; stroke-linejoin: miter"> <path d="M699.8428,1284.0974L775.34973,1284.0981L775.34973,1298.263L699.8428,1298.2634L699.8428,1284.0974 Z M699.8428,1284.0974L775.34973,1284.0981L775.34973,1298.263L699.8428,1298.2634L699.8428,1284.0974 Z M699.8428,1284.0974L775.34973,1284.0981L775.34973,1298.263L699.8428,1298.2634L699.8428,1284.0974 Z M699.8428,1284.0974L775.34973,1284.0981L775.34973,1298.263L699.8428,1298.2634L699.8428,1284.0974 Z"/> </g> <g style="fill:rgb(230,230,230); fill-opacity:1.0; stroke-linejoin: miter"> <path d="M699.8428,1307.7463L798.87805,1307.7468L798.87805,1321.9114L699.8428,1321.9121L699.8428,1307.7463 Z M699.8428,1307.7463L798.87805,1307.7468L798.87805,1321.9114L699.8428,1321.9121L699.8428,1307.7463 Z M699.8428,1307.7463L798.87805,1307.7468L798.87805,1321.9114L699.8428,1321.9121L699.8428,1307.7463 Z M699.8428,1307.7463L798.87805,1307.7468L798.87805,1321.9114L699.8428,1321.9121L699.8428,1307.7463 Z"/> </g> <g style="fill:rgb(230,230,230); fill-opacity:1.0; stroke-linejoin: miter"> <path d="M699.8428,1336.0764L798.87805,1336.0767L798.87805,1345.5598L699.8428,1345.5603L699.8428,1336.0764 Z M699.8428,1336.0764L798.87805,1336.0767L798.87805,1345.5598L699.8428,1345.5603L699.8428,1336.0764 Z M699.8428,1336.0764L798.87805,1336.0767L798.87805,1345.5598L699.8428,1345.5603L699.8428,1336.0764 Z M699.8428,1336.0764L798.87805,1336.0767L798.87805,1345.5598L699.8428,1345.5603L699.8428,1336.0764 Z"/> </g> <g style="fill:rgb(255,255,255); fill-opacity:1.0; stroke-linejoin: miter"> <path d="M978.2633,1147.5791C974.353,1147.5791,970.03345,1144.3796,970.03345,1140.469L970.03345,1072.9248L1042.2522,1147.5791L978.2633,1147.5801 Z"/> </g> <g style="fill:rgb(230,230,230); fill-opacity:1.0; stroke-linejoin: miter"> <path d="M852.70276,1222.2329L1009.1201,1222.2334L1009.1201,1229.3428L852.70276,1229.3433L852.70276,1222.2329 Z M852.70276,1222.2329L1009.1201,1222.2334L1009.1201,1229.3428L852.70276,1229.3433L852.70276,1222.2329 Z M852.70276,1222.2329L1009.1201,1222.2334L1009.1201,1229.3428L852.70276,1229.3433L852.70276,1222.2329 Z M852.70276,1222.2329L1009.1201,1222.2334L1009.1201,1229.3428L852.70276,1229.3433L852.70276,1222.2329 Z"/> </g> <g style="fill:rgb(179,179,179); fill-opacity:1.0; stroke-linejoin: miter"> <path d="M852.70276,1236.4524L980.6808,1236.4534L980.6808,1240.0076L852.70276,1240.0085L852.70276,1236.4524 Z M852.70276,1236.4524L980.6808,1236.4534L980.6808,1240.0076L852.70276,1240.0085L852.70276,1236.4524 Z M852.70276,1236.4524L980.6808,1236.4534L980.6808,1240.0076L852.70276,1240.0085L852.70276,1236.4524 Z M852.70276,1236.4524L980.6808,1236.4534L980.6808,1240.0076L852.70276,1240.0085L852.70276,1236.4524 Z"/> </g> <g style="fill:rgb(179,179,179); fill-opacity:1.0; stroke-linejoin: miter"> <path d="M891.8071,1314.6616L1005.5653,1314.6621L1005.5653,1318.2163L891.8071,1318.2173L891.8071,1314.6616 Z M891.8071,1314.6616L1005.5653,1314.6621L1005.5653,1318.2163L891.8071,1318.2173L891.8071,1314.6616 Z M891.8071,1314.6616L1005.5653,1314.6621L1005.5653,1318.2163L891.8071,1318.2173L891.8071,1314.6616 Z M891.8071,1314.6616L1005.5653,1314.6621L1005.5653,1318.2163L891.8071,1318.2173L891.8071,1314.6616 Z"/> </g> <g style="fill:rgb(179,179,179); fill-opacity:1.0; stroke-linejoin: miter"> <path d="M891.8071,1325.3262L1005.5653,1325.3269L1005.5653,1328.8816L891.8071,1328.8821L891.8071,1325.3262 Z M891.8071,1325.3262L1005.5653,1325.3269L1005.5653,1328.8816L891.8071,1328.8821L891.8071,1325.3262 Z M891.8071,1325.3262L1005.5653,1325.3269L1005.5653,1328.8816L891.8071,1328.8821L891.8071,1325.3262 Z M891.8071,1325.3262L1005.5653,1325.3269L1005.5653,1328.8816L891.8071,1328.8821L891.8071,1325.3262 Z"/> </g> <g style="fill:rgb(179,179,179); fill-opacity:1.0; stroke-linejoin: miter"> <path d="M891.8071,1346.656L1005.5653,1346.6567L1005.5653,1350.2112L891.8071,1350.2119L891.8071,1346.656 Z M891.8071,1346.656L1005.5653,1346.6567L1005.5653,1350.2112L891.8071,1350.2119L891.8071,1346.656 Z M891.8071,1346.656L1005.5653,1346.6567L1005.5653,1350.2112L891.8071,1350.2119L891.8071,1346.656 Z M891.8071,1346.656L1005.5653,1346.6567L1005.5653,1350.2112L891.8071,1350.2119L891.8071,1346.656 Z"/> </g> <g style="fill:rgb(179,179,179); fill-opacity:1.0; stroke-linejoin: miter"> <path d="M891.8071,1357.3208L1005.5653,1357.3218L1005.5653,1360.876L891.8071,1360.8765L891.8071,1357.3208 Z M891.8071,1357.3208L1005.5653,1357.3218L1005.5653,1360.876L891.8071,1360.8765L891.8071,1357.3208 Z M891.8071,1357.3208L1005.5653,1357.3218L1005.5653,1360.876L891.8071,1360.8765L891.8071,1357.3208 Z M891.8071,1357.3208L1005.5653,1357.3218L1005.5653,1360.876L891.8071,1360.8765L891.8071,1357.3208 Z"/> </g> <g style="fill:rgb(179,179,179); fill-opacity:1.0; stroke-linejoin: miter"> <path d="M852.70276,1247.1172L1002.01025,1247.1182L1002.01025,1250.6724L852.70276,1250.6729L852.70276,1247.1172 Z M852.70276,1247.1172L1002.01025,1247.1182L1002.01025,1250.6724L852.70276,1250.6729L852.70276,1247.1172 Z M852.70276,1247.1172L1002.01025,1247.1182L1002.01025,1250.6724L852.70276,1250.6729L852.70276,1247.1172 Z M852.70276,1247.1172L1002.01025,1247.1182L1002.01025,1250.6724L852.70276,1250.6729L852.70276,1247.1172 Z"/> </g> <g style="fill:rgb(179,179,179); fill-opacity:1.0; stroke-linejoin: miter"> <path d="M852.70276,1257.7825L938.02124,1257.783L938.02124,1261.3374L852.70276,1261.3381L852.70276,1257.7825 Z M852.70276,1257.7825L938.02124,1257.783L938.02124,1261.3374L852.70276,1261.3381L852.70276,1257.7825 Z M852.70276,1257.7825L938.02124,1257.783L938.02124,1261.3374L852.70276,1261.3381L852.70276,1257.7825 Z M852.70276,1257.7825L938.02124,1257.783L938.02124,1261.3374L852.70276,1261.3381L852.70276,1257.7825 Z"/> </g> <g style="fill:rgb(146,159,168); fill-opacity:1.0; stroke-linejoin: miter"> <path d="M832.7698,1091.6221L924.0514,1091.6228L1015.333,1091.623Q1015.333,1140.3752,1015.333,1189.127Q924.0514,1189.1272,832.7698,1189.1277Q832.7698,1140.3752,832.7698,1091.6221"/> </g> <g style="fill:rgb(60,70,79); fill-opacity:1.0; stroke-linejoin: miter"> <path d="M673.2347,1082.2397L669.76904,1101.9814L669.78265,1101.9949C665.54614,1102.6868,661.44727,1103.7964,657.5322,1105.2739L657.5322,1105.2605L644.6688,1089.8911L632.57837,1096.8762L639.4433,1115.698L639.47,1115.7112C636.19214,1118.4019,633.18787,1121.4165,630.4988,1124.6958L630.4856,1124.6558L611.66364,1117.7905L604.6787,1129.8811L620.048,1142.7583C618.573,1146.6704,617.4734,1150.763,616.78235,1154.9958L616.7687,1154.9822L597.0269,1158.448L597.0269,1172.418L616.7688,1175.8838L616.78235,1175.8704C617.4735,1180.103,618.573,1184.1958,620.0481,1188.1079L604.6787,1200.9844L611.6636,1213.075L630.4856,1206.21L630.4988,1206.1699C633.18787,1209.4487,636.19214,1212.4636,639.47,1215.1543L639.4433,1215.1677L632.57837,1233.9897L644.6687,1240.9749L657.5322,1225.6052L657.5322,1225.5916C661.447,1227.0691,665.54614,1228.1787,669.78265,1228.8711L669.7689,1228.8838L673.2347,1248.6257L687.1914,1248.6262L690.6571,1228.884L690.6439,1228.8711C694.8793,1228.1809,698.9794,1227.0803,702.8943,1225.6052L715.771,1240.9749L727.86145,1233.9897L720.98315,1215.1677C724.2535,1212.4841,727.25604,1209.4792,729.94086,1206.21L748.7761,1213.075L755.7479,1200.9844L740.39185,1188.1074C741.8672,1184.1953,742.97974,1180.104,743.67065,1175.8704L763.4127,1172.4185L763.41284,1158.4485L743.6707,1154.9827C742.9792,1150.7539,741.86536,1146.667,740.3917,1142.759L755.7479,1129.8816L748.77625,1117.7913L729.94086,1124.6562C727.25604,1121.3867,724.25366,1118.3826,720.9832,1115.6987L727.8616,1096.8762L715.771,1089.8914L702.8946,1105.2612C698.9794,1103.7861,694.8794,1102.6858,690.64404,1101.9954L690.65735,1101.9822L687.1914,1082.24L673.2347,1082.2402 Z M680.2197,1116.2314C707.396,1116.2314,729.4365,1138.2568,729.4365,1165.4314C729.4365,1192.6077,707.39795,1214.6306,680.2197,1214.6306C653.04346,1214.6306,631.02,1192.6055,631.02014,1165.4314C631.02014,1138.2549,653.0447,1116.2314,680.2197,1116.2314 Z"/> </g> </g> </svg>